# xmcd
#
# Track frame offsets: 
#        150
#        15313
#        31114
#        51176
#        71918
#        84251
#        89447
#        104638
#        120152
#        131316
#        144133
#        161808
#        175121
#        191973
#
# Disc length: 2798 seconds
#
# Revision: 4
# Processed by: cddbd v1.5.2PL0 Copyright (c) Steve Scherf et al.
# Submitted via: ExactAudioCopy v0.95b4
#
DISCID=b00aec0e
DTITLE=Красная Плесень - Союз 717
DYEAR=1999
DGENRE=
TTITLE0=Какао
TTITLE1=Тополиный пух,блин
TTITLE2=Ты кинул меня
TTITLE3=Красиво
TTITLE4=Крылышки-прокладки
TTITLE5=178500
TTITLE6=Голубая луна
TTITLE7=Ты назови его в честь меня
TTITLE8=Злыдень 2000
TTITLE9=Девочка-виденье
TTITLE10=Чужие руки
TTITLE11=Ковыляй потихонечку
TTITLE12=Ай ай ай,ого
TTITLE13=Море волнуется раз...
EXTD=
EXTT0=
EXTT1=
EXTT2=
EXTT3=
EXTT4=
EXTT5=
EXTT6=
EXTT7=
EXTT8=
EXTT9=
EXTT10=
EXTT11=
EXTT12=
EXTT13=
PLAYORDER=
